/home/minht/3dpredictsim_tutorial/predsim_tutorial/Results/Case_8/GRF.mot
version=1
nRows=30
nColumns=19
inDegrees=yes
endheader 
time	r_ground_force_vx	r_ground_force_vy	r_ground_force_vz	r_ground_force_px	r_ground_force_py	r_ground_force_pz	l_ground_force_vx	l_ground_force_vy	l_ground_force_vz	l_ground_force_px	l_ground_force_py	l_ground_force_pz	r_ground_torque_x	r_ground_torque_y	r_ground_torque_z	l_ground_torque_x	l_ground_torque_y	l_ground_torque_z	
          0.00000000	        -64.86774946	         48.78214210	          5.67614590	          0.07845349	          0.00000000	          0.09222357	        120.80030966	        830.57796851	         21.81202297	         -0.27700822	          0.00000000	         -0.09438028	          0.00000000	         -0.00022324	          0.00000000	          0.00000000	         -5.16795095	          0.00000000	
          0.03219879	        -71.50787210	        202.04995273	         14.80918434	          0.11062321	          0.00000000	          0.08842237	        111.96926616	        715.26690849	         14.59604946	         -0.25989297	          0.00000000	         -0.09750950	          0.00000000	          0.10202745	          0.00000000	          0.00000000	         -3.81338378	          0.00000000	
          0.06439759	       -102.12023899	        753.91203464	          7.90171530	          0.15076203	          0.00000000	          0.08278759	         83.84716950	        536.02263028	         -0.68666026	         -0.22926442	          0.00000000	         -0.10047674	          0.00000000	          4.23496798	          0.00000000	          0.00000000	         -1.97862296	          0.00000000	
          0.09659638	       -111.12975583	        880.78255632	          3.32220213	          0.15758406	          0.00000000	          0.08247043	         59.62916819	        396.65658296	        -17.17457553	         -0.20426379	          0.00000000	         -0.09992130	          0.00000000	          2.54008428	          0.00000000	          0.00000000	         -1.09722187	          0.00000000	
          0.12879517	        -88.10394039	        863.53307119	         -2.61174260	          0.16066857	          0.00000000	          0.08231877	         33.73537762	        264.55212720	        -23.58263232	         -0.18104911	          0.00000000	         -0.10261360	          0.00000000	         -0.84772575	          0.00000000	          0.00000000	         -0.56751413	          0.00000000	
          0.16099397	        -63.83870616	        845.02748494	        -10.47478354	          0.16349119	          0.00000000	          0.08241783	         12.26708601	        168.67250558	        -25.29939660	         -0.15862148	          0.00000000	         -0.10693854	          0.00000000	         -2.96525263	          0.00000000	          0.00000000	         -0.08028991	          0.00000000	
          0.19319276	        -47.32524780	        846.43826185	        -15.58211736	          0.17063262	          0.00000000	          0.08210908	          1.17312492	        111.17585265	        -27.23430476	         -0.15337347	          0.00000000	         -0.10082243	          0.00000000	         -3.84873908	          0.00000000	          0.00000000	          0.01069835	          0.00000000	
          0.22539155	        -37.87072014	        858.81883304	        -19.25808278	          0.17788680	          0.00000000	          0.08227091	        -16.19694323	         38.59681254	         -6.90202982	         -0.14833739	          0.00000000	         -0.09656616	          0.00000000	         -3.23493189	          0.00000000	          0.00000000	          0.00440284	          0.00000000	
          0.25759035	        -24.93655479	        863.80626453	        -20.88295832	          0.18391425	          0.00000000	          0.08293922	          0.00000000	          0.00000000	          0.00000000	          0.00000000	          0.00000000	          0.00000000	          0.00000000	         -2.37177698	          0.00000000	          0.00000000	          0.00000000	          0.00000000	
          0.28978914	        -13.46168267	        850.96321053	        -23.80061965	          0.18936622	          0.00000000	          0.08370303	          0.00000000	          0.00000000	          0.00000000	          0.00000000	          0.00000000	          0.00000000	          0.00000000	         -1.96497776	          0.00000000	          0.00000000	          0.00000000	          0.00000000	
          0.32198793	         -7.58301394	        850.35879649	        -27.32709040	          0.19420439	          0.00000000	          0.08456318	          0.00000000	          0.00000000	          0.00000000	          0.00000000	          0.00000000	          0.00000000	          0.00000000	         -1.33078320	          0.00000000	          0.00000000	          0.00000000	          0.00000000	
          0.35418673	         -1.32351178	        864.69123795	        -31.10661527	          0.19884793	          0.00000000	          0.08552403	          0.00000000	          0.00000000	          0.00000000	          0.00000000	          0.00000000	          0.00000000	          0.00000000	         -0.31970274	          0.00000000	          0.00000000	          0.00000000	          0.00000000	
          0.38638552	          4.85056859	        881.80588596	        -34.10226251	          0.20375274	          0.00000000	          0.08653541	          0.00000000	          0.00000000	          0.00000000	          0.00000000	          0.00000000	          0.00000000	          0.00000000	          0.91312479	          0.00000000	          0.00000000	          0.00000000	          0.00000000	
          0.41858431	         11.24888559	        891.97256101	        -35.88420146	          0.20872354	          0.00000000	          0.08749208	          0.00000000	          0.00000000	          0.00000000	          0.00000000	          0.00000000	          0.00000000	          0.00000000	          2.25677868	          0.00000000	          0.00000000	          0.00000000	          0.00000000	
          0.45078310	         19.78058753	        890.51702944	        -36.73574012	          0.21391962	          0.00000000	          0.08820946	          0.00000000	          0.00000000	          0.00000000	          0.00000000	          0.00000000	          0.00000000	          0.00000000	          3.64379526	          0.00000000	          0.00000000	          0.00000000	          0.00000000	
          0.48298190	         27.16776751	        878.55938279	        -36.24529772	          0.21956244	          0.00000000	          0.08860931	          0.00000000	          0.00000000	          0.00000000	          0.00000000	          0.00000000	          0.00000000	          0.00000000	          4.99219744	          0.00000000	          0.00000000	          0.00000000	          0.00000000	
          0.51518069	         32.71806850	        860.71697956	        -33.61685313	          0.22548941	          0.00000000	          0.08879134	          0.00000000	          0.00000000	          0.00000000	          0.00000000	          0.00000000	          0.00000000	          0.00000000	          6.07708126	          0.00000000	          0.00000000	          0.00000000	          0.00000000	
          0.54737948	         36.86243004	        846.74852571	        -30.32207782	          0.23137435	          0.00000000	          0.08902618	          0.00000000	          0.00000000	          0.00000000	          0.00000000	          0.00000000	          0.00000000	          0.00000000	          6.66318513	          0.00000000	          0.00000000	          0.00000000	          0.00000000	
          0.57957828	         38.31885920	        847.84464545	        -28.55850780	          0.23674262	          0.00000000	          0.08967176	          0.00000000	          0.00000000	          0.00000000	          0.00000000	          0.00000000	          0.00000000	          0.00000000	          6.93707120	          0.00000000	          0.00000000	          0.00000000	          0.00000000	
          0.61177707	         43.16509735	        866.05104784	        -28.46141633	          0.24162715	          0.00000000	          0.09098499	          0.00000000	          0.00000000	          0.00000000	          0.00000000	          0.00000000	          0.00000000	          0.00000000	          7.05713378	          0.00000000	          0.00000000	          0.00000000	          0.00000000	
          0.64397586	         58.75995846	        884.55751735	        -32.95999194	          0.24770330	          0.00000000	          0.09255595	        -50.04649023	         30.45551001	         -7.77003044	          0.60184064	          0.00000000	         -0.09517230	          0.00000000	          7.16900976	          0.00000000	          0.00000000	          0.00010911	          0.00000000	
          0.67617466	         75.77464916	        855.90446475	        -30.87155068	          0.25623054	          0.00000000	          0.09385365	       -100.80427395	         86.73022114	        -26.94951405	          0.64180329	          0.00000000	         -0.08773968	          0.00000000	          6.87929007	          0.00000000	          0.00000000	          0.00052613	          0.00000000	
          0.70837345	         84.16413950	        778.33843740	        -21.67662940	          0.26669099	          0.00000000	          0.09433237	        -26.82559341	        264.38713363	        -16.09686278	          0.66141483	          0.00000000	         -0.08378825	          0.00000000	          5.56699121	          0.00000000	          0.00000000	          0.02009031	          0.00000000	
          0.74057224	         76.87838771	        652.55894516	         -6.74447444	          0.27822063	          0.00000000	          0.09365581	       -124.16266120	        607.01186090	        -14.03045574	          0.70012869	          0.00000000	         -0.07978190	          0.00000000	          3.44860555	          0.00000000	          0.00000000	         -4.53564763	          0.00000000	
          0.77277104	         50.39107732	        490.60564664	         10.06683915	          0.29159389	          0.00000000	          0.09296164	       -133.50103212	        687.05092887	        -15.77632931	          0.70875789	          0.00000000	         -0.07944105	          0.00000000	          2.34353260	          0.00000000	          0.00000000	         -5.81536482	          0.00000000	
          0.80496983	         25.46168201	        349.61134408	         19.78937186	          0.30780727	          0.00000000	          0.09301309	       -122.04552723	        703.57515049	        -12.99620164	          0.71256224	          0.00000000	         -0.07908071	          0.00000000	          1.62420691	          0.00000000	          0.00000000	         -4.42609933	          0.00000000	
          0.83716862	          9.06714322	        263.97765121	         24.48615987	          0.32287538	          0.00000000	          0.09406774	       -102.93360974	        720.92820994	         -9.31642123	          0.71396544	          0.00000000	         -0.07911750	          0.00000000	          1.02395885	          0.00000000	          0.00000000	         -3.31146569	          0.00000000	
          0.86936742	          2.62733000	        220.22873313	         27.17076505	          0.33278218	          0.00000000	          0.09415555	        -84.03300750	        729.92779019	         -6.32522803	          0.71482168	          0.00000000	         -0.07935594	          0.00000000	          0.57569036	          0.00000000	          0.00000000	         -2.56148072	          0.00000000	
          0.90156621	          0.84758718	        199.92774807	         30.30678408	          0.33721637	          0.00000000	          0.09128753	        -70.60212340	        732.70350071	         -4.14969000	          0.71548212	          0.00000000	         -0.07968752	          0.00000000	          0.37257004	          0.00000000	          0.00000000	         -2.08926466	          0.00000000	
          0.93376500	          1.27290840	        185.03448836	         31.82852010	          0.34050317	          0.00000000	          0.08854174	        -58.54933983	        734.44849049	         -2.38470192	          0.71581231	          0.00000000	         -0.08011556	          0.00000000	          0.23011653	          0.00000000	          0.00000000	         -1.83822126	          0.00000000	
